<?xml version="1.0" encoding="utf-8"?>
<!-- Generator: Adobe Illustrator 25.0.1, SVG Export Plug-In . SVG Version: 6.00 Build 0)  -->
<svg version="1.1" id="Capa_1" xmlns="http://www.w3.org/2000/svg" xmlns:xlink="http://www.w3.org/1999/xlink" x="0px" y="0px"
	 viewBox="0 0 1080 1080" style="enable-background:new 0 0 1080 1080;" xml:space="preserve">
<style type="text/css">
	.st0{fill:#FF6400;}
</style>
<g id="Anselmo_1_">
	<path class="st0" d="M378.01,84.45c-8.04,3.34,2.4,33.61,11.74,26.97c0.01-0.01,0.03-0.02,0.05-0.02
		c26.57-5.46,46.76,76.86,50.48,103.37c11.27,71.02-53.39,125.18-84.05,178.75c-0.02,0.04-0.02,0.08,0,0.12
		c25.01,51.56,10.95,29.97,29.72-1.79c0-0.01,0.01-0.01,0.01-0.02c37.24-46.42,117.82-63.01,160.22-14.92
		c0.01,0.01,0.02,0.02,0.03,0.03c29.8,16.7,70.24-15.8,104.86-13.02c0,0,0.01,0,0.01,0c4.37-0.18,12.53,0.72,8.4-5.6
		c-0.01-0.01-0.01-0.02-0.02-0.03c-10.37-9.35-4.33-23.88-11.43-35.54c-0.01-0.01-0.01-0.02-0.01-0.03
		c-16.61-68.89,12.43-150.85,55.02-205.08c0-0.01,0.01-0.01,0.01-0.02c119.49-111.11,86.79-30.51,68.72,69.73c0,0.01,0,0.02,0,0.03
		c2.58,46.41,15.14,91.28,27.32,135.97c0,0,0,0.01,0,0.01c20.79,133.19-24.79,45.74,59.29,156.85c0,0.01,0.01,0.01,0.01,0.02
		c19.98,35.14,27.36,74.32,34.61,113.45c3.22,24.12-10.55,47,29,37.33c45-11,16.65,192.48-57.37,237.08
		c-71.63,41.9-67.04-8.73-99.87,63.28c-30.76,73.58-113,80.79-184.21,81.63c-10.42,0.12-20.68-2.2-30.22-6.4
		c-20.07-8.84-38.62-7.51-56.91,5.55c-5.84,4.17-12.7,6.7-19.82,7.58c-105.68,13-184.09-18.38-256.88-98.38c0,0-0.01-0.01-0.01-0.01
		c-62.77-51.46-45.63-147.23-33.28-217.93c5.46-28.18-31.81-32.31-39.97-54.77c0-0.01-0.01-0.01-0.01-0.02
		c-36.89-60.41,36.25-94.09,55.26-140.86c0.01-0.03,0.01-0.06,0-0.09c-14.09-46.62,8.8-83.66,34.93-117.71
		c0.02-0.02,0.03-0.05,0.03-0.08c-2.31-57.66,48.13-93.98,71.98-141.47c0,0,0-0.01,0-0.01c30.08-47.92,19.96-106.05,36.92-157.84
		c0-0.01,0-0.02,0.01-0.03c0.65-10.05,12.2-8.21,15.21-15.68c8.95-19.79,18.64-4.93,20.31,9.48
		C378.1,84.38,378.06,84.43,378.01,84.45z M814.84,573.16c13.51,51.13-58.59,24.46-69.43,48.69c-0.02,0.05-0.01,0.12,0.04,0.16
		c81.5,58.98-46.36,283.73-8.94,94.8c17.93-94.44-74.6-101.42-126.85-152.08c-0.01-0.01-0.01-0.01-0.02-0.02
		c-64.7-96.11-26.46-84.59-69.39-52.83c-5.07,3.75-12.32,1.43-14.25-4.57c-7.81-24.17,14.78-57.61,8.13-83.65
		c0-0.01-0.01-0.02-0.01-0.03c-38.22-75.84-173.1,8.44-141.39,80.18c4.04,8.69,1.99,12.3-6.73,15.53c-0.01,0-0.02,0.01-0.03,0.01
		c-12.56,9.18-22.38-21.79-20.8-32.44c0-0.01,0-0.01,0-0.02c-2.13-47.11-36.91-111.24-91.22-79.55c-0.01,0.01-0.02,0.01-0.03,0.02
		c-94.29,101.57,2.69,81.25-16.37,135.23c-0.01,0.02-0.02,0.04-0.04,0.06c-21.77,18.61-53.79,33.86-55.41,66.06
		c0,0.01,0,0.01,0,0.02c-8.12,32.32,16.92,52.58,44.62,31c0.01-0.01,0.01-0.01,0.02-0.02c23.32-27.83,41.04-12.89,38.26,18.73
		c0,0.02-0.01,0.04-0.02,0.05c-18.02,31.74-43.55,65.79-30.44,103.9c0,0,0,0.01,0,0.01c4.35,21.71,59.42,137.81,2.39,82.43
		c-13.57-10.15-28.88-70.44-43.62-48.34c-0.01,0.02-0.02,0.05-0.02,0.07c-4.34,111.38,110.23,201.26,216.88,193.92
		c0.01,0,0.01,0,0.02,0c41.42,4.95,50.52-62.36,93.33-52.4c18.65,3.54,5.99,28.55,17.7,34.7c0.01,0.01,0.03,0.01,0.04,0.01
		c55.5,11.11,118.5,12.19,161.34-30.44c0.01-0.01,0.02-0.02,0.03-0.02c27.62-14.54,50.77-37.23,57.08-69.17c0-0.01,0-0.01,0-0.02
		c0.92-34.26,45.39-112.38,46.8-34.29c0,0.01,0,0.02,0.01,0.04c2.85,10.54,20.51,0.78,26.49-4.43c0,0,0,0,0.01-0.01
		c25.34-24.95,61.68-40.42,77.26-73.75c0,0,0-0.01,0.01-0.01c14.67-23.56,1.46-54.69,4.57-81.5c0-0.01,0-0.02,0-0.02
		c-2.99-36.68-57.86,4.99-61.12,24.26c0,0.01-0.01,0.02-0.01,0.04c-40.48,75-44.06-17.71-18.9-47.79C868,616,859,510,767.77,417.68
		c-16.23-16.43,7.01-41.47,5.49-63.24c0-0.01,0-0.02,0-0.02c-3.15-12.85-4.38-26.75-8.38-39.28c-0.01-0.02-0.02-0.03-0.03-0.05
		c-6.57-7.25-12.18-13.9-10.3-23.97c0-0.01,0-0.03,0-0.04c-9.25-50.22-8.54-102.43-6.83-155.42c0-0.01,0-0.02,0-0.03
		c-2.09-12.35-17.92,0.03-21.72,5.42c-41.35,52.26-61.35,122.34-39.45,187.14c31.8,106.36,48.22,75.97-57.29,84.84
		c-105.51,10.46-53.49,47.3-10.06,99.1c0.02,0.02,0.04,0.04,0.07,0.04c13.6,3.77,23.49-50.8,68.95-36.6c0,0,0.01,0,0.01,0
		c97.51,37.54-14.76,139.3,82.35,106.18c0,0,0.01,0,0.01,0c45.91-9.96-30.02-96.46-48.96-112.19c-0.01,0-0.01-0.01-0.02-0.01
		c-41.07-25.15-89.42,15.5-126.96-17.66c-0.02-0.02-0.03-0.04-0.04-0.06c-6.26-19.57,106.58-13.29,123.52-9.08
		c0.01,0,0.01,0,0.02,0.01c39.07,15.69,96.27,86.02,96.7,130.39C814.84,573.14,814.84,573.15,814.84,573.16z M383.15,152.38
		c-13.68,92.07-24.32,107.32-81.16,186.32c-0.01,0.02-0.02,0.03-0.02,0.05c-19.26,105.83,98.28-33.95,102.13-70.15
		c0-0.01,0-0.01,0-0.02c11.18-38.35-11.82-78.78-20.71-116.22C383.36,152.23,383.17,152.24,383.15,152.38z"/>
	<path class="st0" d="M404.07,647.8c-6.21,17.2,12.17,14.28,23.72,14.12c0.01,0,0.02,0,0.03,0c211.03,46.49,70.59,35.27,42.17-86.75
		c-2.78-12.11,4.76-12,13.49-9.74c0.04,0.01,0.07,0.04,0.09,0.08c3.23,7.36-0.3,16.54,7.39,23.07c0.02,0.01,0.03,0.03,0.03,0.05
		c17.05,47.29,75.04,68.72,88.48,118.21c50.1,172.21-224.6,167.25-291.34,60.19c-0.01-0.02-0.02-0.03-0.02-0.05
		c-12.25-95.73,125.64-122.28,137.06-214.77c0.01-0.05,0.04-0.09,0.08-0.1c29.47-10.99,1.87,87.66-21.11,95.62
		C404.11,647.74,404.08,647.77,404.07,647.8z M451.78,754.9c-14.87,46.53,13.27,85.53,13.78,12.81c0-0.01,0-0.02,0-0.03
		c-1.29-6.66-7.27-7.26-13.57-12.84C451.92,754.79,451.81,754.82,451.78,754.9z M528.7,717.84c-15.45,26.05-5.04,26.95,20.63,24.8
		c0.02,0,0.04-0.01,0.06-0.02c19.7-12.32-5.76-26.41-20.59-24.84C528.76,717.78,528.72,717.8,528.7,717.84z M503.82,801.81
		c0,0.07,0.04,0.13,0.11,0.14c7.1,0.56,43.29-23.56,30.88-28.71C504.96,764.02,504.78,775.27,503.82,801.81z M472.29,736.4
		c2.91-9.61,7.31-20.31,3.56-30.8c-0.02-0.05-0.06-0.08-0.11-0.09c-21.78-1.86-35.1,42.33-3.53,30.98
		C472.24,736.47,472.27,736.44,472.29,736.4z M420.95,698.04c-20.58-6.92-21.8,13.7-22.69,28.88c0,0.03,0.01,0.06,0.02,0.08
		c14.68,22.51,19.32-17,22.75-28.81C421.05,698.13,421.01,698.06,420.95,698.04z M403.23,794.1c4.84-12.64,8.01-35.51-11.29-29.6
		c-0.03,0.01-0.05,0.03-0.07,0.05c-11.84,16.56-8.9,23.48,11.2,29.62C403.14,794.19,403.21,794.16,403.23,794.1z M336.73,731.68
		c9.22-2.12,20.2,1.71,24.62-5.82c0.01-0.02,0.02-0.04,0.02-0.06c1.57-32.07-13.8-11.56-24.77,5.7
		C336.54,731.59,336.62,731.71,336.73,731.68z M328.01,768.36c6.13,7.88,23.72,13.26,19.42-1.82c-0.01-0.05-0.06-0.09-0.11-0.09
		c-5.71-0.64-11.37-7.36-19.3,1.75C327.98,768.24,327.97,768.31,328.01,768.36z"/>
	<path class="st0" d="M456.39,904.29c-47.16-5.93-96.67-9.36-135.39-39.03c4.88-15.28,20.02-21.99,34.23-13.09
		c73.29,15.3,146.33,8.34,219.37,5.15C603.37,896.89,480.07,896.62,456.39,904.29z"/>
	<path class="st0" d="M616.82,649.92c0.01,0.02,0.01,0.03,0.01,0.05c-0.66,9.49-1,16.64-1.7,23.76c-1.5,15.35,6.05,28.39,10.4,42.27
		c3.06,9.76,5.85,19.62,8.33,29.54c2.09,8.36,3.27,16.95,5.36,25.31c3.13,12.5-4.62,23.78-17.59,24.99
		c-5.87,0.55-10.76-6.25-9.73-13.63c0.61-4.34,2.21-8.73,1.86-12.98c-1.47-18-4.04-35.57-14.74-51.22
		c-4.28-6.26-5.58-14.58-8.15-21.99c-1.92-5.55-3.83-11.12-5.5-16.75c-2.72-9.17-3.49-17.67,4.14-25.7
		c3.99-4.21,5.32-10.83,8.52-15.94c1.77-2.83,4.7-6.21,7.53-6.65c1.91-0.3,5.32,3.7,6.71,6.45
		C614.6,641.94,615.82,647.03,616.82,649.92z"/>
	<path class="st0" d="M297.08,511.22c-50.11,5.5-40.04-72.3-0.69-75.6c0.01,0,0.03,0,0.04,0
		C340.85,445.51,346.38,504.22,297.08,511.22z"/>
	<path class="st0" d="M900.54,712.55c0,0.01,0,0.02-0.01,0.04c-2.3,7.13-4.84,15.05-7.4,22.96c-4.36,13.5-8.6,27.05-13.14,40.49
		c-3.41,10.09-8.44,19.13-18.37,24.4c-2.52,1.34-4.89,3.11-7.55,4c-2.24,0.75-4.82,0.79-7.22,0.65c-2.8-0.17-5.54-1.09-8.34-1.33
		c-7-0.59-11.7-4.97-13.56-10.82c-0.94-2.93,2.25-7.28,3.8-10.88c1.27-2.94,2.5-6.02,4.43-8.52c4.31-5.58,9.21-10.71,13.56-16.26
		c4.6-5.87,13.25-9.07,12.46-18.58c-0.05-0.56,0.33-1.43,0.79-1.71c9.61-6.01,9.1-17.83,14.95-26c1.63-2.28,2.85-4.85,4.33-7.25
		c3.23-5.24,7.43-4.71,12.53-2.72C897,703.05,900.84,705.53,900.54,712.55z"/>
	<path class="st0" d="M365.28,537.09c23.99,9.38-73.51,65.8-82.88,57.73c-0.04-0.03-0.05-0.09-0.04-0.14
		c7.38-27.66,51.37-54.8,82.85-57.6C365.24,537.08,365.27,537.08,365.28,537.09z"/>
	<path class="st0" d="M512.05,461.43c-4.57,11.01-6.96,25.3-15.32,32.33c-1.91,1.61-4.53,2.15-6.93,1.45
		c-39.84-11.68,1.72-85.05,20.42-56.58C514.66,445.38,515.15,453.97,512.05,461.43z"/>
	<path class="st0" d="M408.31,459.4c4.32-2.81,10.14-1.65,13.3,2.43c46.57,60.28-13.55,65.8-19.09,17.2
		C401.88,471.32,402.37,463.26,408.31,459.4z"/>
</g>
</svg>
